# xmcd
#
# Track frame offsets:
# 150
# 13475
# 25835
# 38197
# 47230
# 67652
# 78535
# 94085
# 107677
# 121527
# 135665
# 148270
# 159825
#
# Disc length: 2309 seconds
#
#
# Revision: 0
# Processed by: cddbd v1.5.2PL0 Copyright (c) Steve Scherf et al.
# Submitted via: FreeRIP 2.90 
#
DISCID=a509030d
DTITLE=Cowboys Super Hits - Cowboys Super Hits
DYEAR=1900
DGENRE=Country
TTITLE0=Roy Rogers - Cowboy night herd song
TTITLE1=Gene Autry - Back in the saddle again
TTITLE2=Marty Robbins - Streets of laredo
TTITLE3=Frankie Laine - Raw hide
TTITLE4=The Charlie Daniels Band - Damn good cowboy
TTITLE5=Willie Nelson and Leon Russel - Don t fence me in
TTITLE6=Gibson Miller Band - Mammas don t let your babies grow up to be cowboys
TTITLE7=Johnny Cash Waylon Jennings - Even cowgirls get the blues
TTITLE8=Willie Nelson - My heroes have always been cowboys
TTITLE9=Waylon Jennings Willie Nelson - The last cowboy song
TTITLE10=Johnny Cash - After the ball
TTITLE11=Poco - Fools gold
TTITLE12=Willie Nelson Leon Russel - Hearthbreak hotel
EXTD=
EXTT0=
EXTT1=
EXTT2=
EXTT3=
EXTT4=
EXTT5=
EXTT6=
EXTT7=
EXTT8=
EXTT9=
EXTT10=
EXTT11=
EXTT12=
PLAYORDER=
